<svg width="33" height="27" viewBox="0 0 33 27" fill="none" xmlns="http://www.w3.org/2000/svg">
<path d="M5.5 3.53125C5.5 2.03027 6.73177 0.8125 8.25 0.8125H24.75C26.2682 0.8125 27.5 2.03027 27.5 3.53125V20.75H5.5V3.53125ZM23.4323 6.19336C22.8938 5.66094 22.0229 5.66094 21.4901 6.19336L15.1307 12.4805L12.438 9.81836C11.8995 9.28594 11.0286 9.28594 10.4958 9.81836C9.96302 10.3508 9.95729 11.2117 10.4958 11.7385L14.1625 15.3635C14.701 15.8959 15.5719 15.8959 16.1047 15.3635L23.4323 8.11914C23.9708 7.58672 23.9708 6.72578 23.4323 6.19902V6.19336ZM0 18.0312C0 16.5303 1.23177 15.3125 2.75 15.3125H3.66667V22.5625H29.3333V15.3125H30.25C31.7682 15.3125 33 16.5303 33 18.0312V23.4688C33 24.9697 31.7682 26.1875 30.25 26.1875H2.75C1.23177 26.1875 0 24.9697 0 23.4688V18.0312Z" fill="black"/>
</svg>
