<svg width="32" height="44" viewBox="0 0 32 44" fill="none" xmlns="http://www.w3.org/2000/svg">
<path d="M5.33333 0.5C2.39167 0.5 0 2.91035 0 5.875V38.125C0 41.0896 2.39167 43.5 5.33333 43.5H26.6667C29.6083 43.5 32 41.0896 32 38.125V13.9375H21.3333C19.8583 13.9375 18.6667 12.7365 18.6667 11.25V0.5H5.33333ZM21.3333 0.5V11.25H32L21.3333 0.5ZM6.66667 19.3125H8C9.84167 19.3125 11.3333 20.8158 11.3333 22.6719V23.3438C11.3333 24.0828 10.7333 24.6875 10 24.6875C9.26667 24.6875 8.66667 24.0828 8.66667 23.3438V22.6719C8.66667 22.3023 8.36667 22 8 22H6.66667C6.3 22 6 22.3023 6 22.6719V29.3906C6 29.7602 6.3 30.0625 6.66667 30.0625H8C8.36667 30.0625 8.66667 29.7602 8.66667 29.3906V28.7188C8.66667 27.9797 9.26667 27.375 10 27.375C10.7333 27.375 11.3333 27.9797 11.3333 28.7188V29.3906C11.3333 31.2467 9.84167 32.75 8 32.75H6.66667C4.825 32.75 3.33333 31.2467 3.33333 29.3906V22.6719C3.33333 20.8158 4.825 19.3125 6.66667 19.3125ZM12.6667 23.2094C12.6667 21.0594 14.4 19.3125 16.5333 19.3125H18C18.7333 19.3125 19.3333 19.9172 19.3333 20.6562C19.3333 21.3953 18.7333 22 18 22H16.5333C15.875 22 15.3333 22.5375 15.3333 23.2094C15.3333 23.6461 15.5667 24.0408 15.9333 24.2592L18.05 25.477C19.25 26.174 20 27.459 20 28.8615C20 31.0115 18.2667 32.7584 16.1333 32.7584H14C13.2667 32.7584 12.6667 32.1537 12.6667 31.4146C12.6667 30.6756 13.2667 30.0709 14 30.0709H16.1333C16.7917 30.0709 17.3333 29.5334 17.3333 28.8615C17.3333 28.4248 17.1 28.0301 16.7333 27.8117L14.6167 26.5939C13.4083 25.8969 12.6667 24.6035 12.6667 23.2094ZM23.3333 20.6562V23.3102C23.3333 25.2418 23.7917 27.1398 24.6667 28.8531C25.5417 27.1482 26 25.2502 26 23.3102V20.6562C26 19.9172 26.6 19.3125 27.3333 19.3125C28.0667 19.3125 28.6667 19.9172 28.6667 20.6562V23.3102C28.6667 26.2244 27.8083 29.0799 26.2 31.507L25.775 32.1537C25.525 32.5316 25.1083 32.75 24.6667 32.75C24.225 32.75 23.8083 32.5232 23.5583 32.1537L23.1333 31.507C21.525 29.0799 20.6667 26.2244 20.6667 23.3102V20.6562C20.6667 19.9172 21.2667 19.3125 22 19.3125C22.7333 19.3125 23.3333 19.9172 23.3333 20.6562Z" fill="#0B9BF5"/>
</svg>
