<svg width="33" height="29" viewBox="0 0 33 29" fill="none" xmlns="http://www.w3.org/2000/svg">
<path d="M22.6875 4.1875C21.5467 4.1875 20.625 3.26582 20.625 2.125C20.625 0.98418 21.5467 0.0625 22.6875 0.0625H26.8125C30.2285 0.0625 33 2.83398 33 6.25V22.75C33 26.166 30.2285 28.9375 26.8125 28.9375H22.6875C21.5467 28.9375 20.625 28.0158 20.625 26.875C20.625 25.7342 21.5467 24.8125 22.6875 24.8125H26.8125C27.9533 24.8125 28.875 23.8908 28.875 22.75V6.25C28.875 5.10918 27.9533 4.1875 26.8125 4.1875H22.6875ZM0.483398 15.6215C0.174023 15.3314 0 14.9254 0 14.5C0 14.0746 0.174023 13.6686 0.483398 13.3785L9.76465 4.61289C10.2158 4.1875 10.8732 4.07148 11.4404 4.31641C12.0076 4.56133 12.375 5.12207 12.375 5.73438V10.375H20.625C21.7658 10.375 22.6875 11.2967 22.6875 12.4375V16.5625C22.6875 17.7033 21.7658 18.625 20.625 18.625H12.375V23.2656C12.375 23.8844 12.0076 24.4387 11.4404 24.6836C10.8732 24.9285 10.2158 24.8125 9.76465 24.3871L0.483398 15.6215Z" fill="black"/>
</svg>
