<svg width="33" height="29" viewBox="0 0 33 29" fill="none" xmlns="http://www.w3.org/2000/svg">
<path d="M33 4C33 2.06953 31.3557 0.5 29.3333 0.5H20.1667V7.5C20.1667 8.46797 19.3474 9.25 18.3333 9.25H11V11.3609C15.2339 12.5039 18.3333 16.2172 18.3333 20.625C18.3333 23.857 16.6661 26.7117 14.1109 28.4617C14.2943 28.4891 14.4776 28.5 14.6667 28.5H29.3333C31.3557 28.5 33 26.9305 33 25V4ZM11 7.5H18.3333V0.5L11 7.5ZM8.25 28.5C12.8047 28.5 16.5 24.9727 16.5 20.625C16.5 16.2773 12.8047 12.75 8.25 12.75C3.69531 12.75 0 16.2773 0 20.625C0 24.9727 3.69531 28.5 8.25 28.5ZM7.33333 17.125C7.33333 16.6437 7.74583 16.25 8.25 16.25C8.75417 16.25 9.16667 16.6437 9.16667 17.125V19.75H11.9167C12.4208 19.75 12.8333 20.1437 12.8333 20.625C12.8333 21.1063 12.4208 21.5 11.9167 21.5H9.16667V24.125C9.16667 24.6063 8.75417 25 8.25 25C7.74583 25 7.33333 24.6063 7.33333 24.125V21.5H4.58333C4.07917 21.5 3.66667 21.1063 3.66667 20.625C3.66667 20.1437 4.07917 19.75 4.58333 19.75H7.33333V17.125Z" fill="black"/>
</svg>
