<svg width="34" height="25" viewBox="0 0 34 25" fill="none" xmlns="http://www.w3.org/2000/svg">
<path d="M9.52344 3.80469C9.52344 5.404 8.22432 6.70312 6.625 6.70312C5.02568 6.70312 3.72656 5.404 3.72656 3.80469C3.72656 2.20537 5.02568 0.90625 6.625 0.90625C8.22432 0.90625 9.52344 2.20537 9.52344 3.80469ZM3.3125 11.9669C2.79492 12.5466 2.48438 13.3178 2.48438 14.1562C2.48438 14.9947 2.79492 15.7659 3.3125 16.3456V11.9669ZM10.7863 9.41523C9.24912 10.7765 8.28125 12.7691 8.28125 14.9844C8.28125 16.7597 8.90234 18.39 9.9375 19.6685V20.7812C9.9375 21.6974 9.19736 22.4375 8.28125 22.4375H4.96875C4.05264 22.4375 3.3125 21.6974 3.3125 20.7812V19.3941C1.35605 18.4625 0 16.4698 0 14.1562C0 10.9524 2.59307 8.35938 5.79688 8.35938H7.45312C8.69531 8.35938 9.84434 8.74756 10.7863 9.41006V9.41523ZM23.1875 20.7812V19.6685C24.2227 18.39 24.8438 16.7597 24.8438 14.9844C24.8438 12.7691 23.8759 10.7765 22.3387 9.41006C23.2807 8.74756 24.4297 8.35938 25.6719 8.35938H27.3281C30.5319 8.35938 33.125 10.9524 33.125 14.1562C33.125 16.4698 31.7689 18.4625 29.8125 19.3941V20.7812C29.8125 21.6974 29.0724 22.4375 28.1562 22.4375H24.8438C23.9276 22.4375 23.1875 21.6974 23.1875 20.7812ZM29.3984 3.80469C29.3984 5.404 28.0993 6.70312 26.5 6.70312C24.9007 6.70312 23.6016 5.404 23.6016 3.80469C23.6016 2.20537 24.9007 0.90625 26.5 0.90625C28.0993 0.90625 29.3984 2.20537 29.3984 3.80469ZM29.8125 11.9669V16.3508C30.3301 15.7659 30.6406 14.9999 30.6406 14.1614C30.6406 13.3229 30.3301 12.5518 29.8125 11.9721V11.9669ZM16.5625 7.53125C14.7354 7.53125 13.25 6.0458 13.25 4.21875C13.25 2.3917 14.7354 0.90625 16.5625 0.90625C18.3896 0.90625 19.875 2.3917 19.875 4.21875C19.875 6.0458 18.3896 7.53125 16.5625 7.53125ZM12.4219 14.9844C12.4219 15.8229 12.7324 16.5889 13.25 17.1737V12.795C12.7324 13.3799 12.4219 14.1459 12.4219 14.9844ZM19.875 12.795V17.1789C20.3926 16.594 20.7031 15.828 20.7031 14.9896C20.7031 14.1511 20.3926 13.3799 19.875 12.8002V12.795ZM23.1875 14.9844C23.1875 17.2979 21.8314 19.2906 19.875 20.2223V22.4375C19.875 23.3536 19.1349 24.0938 18.2188 24.0938H14.9062C13.9901 24.0938 13.25 23.3536 13.25 22.4375V20.2223C11.2936 19.2906 9.9375 17.2979 9.9375 14.9844C9.9375 11.7806 12.5306 9.1875 15.7344 9.1875H17.3906C20.5944 9.1875 23.1875 11.7806 23.1875 14.9844Z" fill="black"/>
</svg>
