<svg width="317" height="74" viewBox="0 0 317 74" fill="none" xmlns="http://www.w3.org/2000/svg">
<g filter="url(#filter0_d_186_11358)">
<path d="M65.843 1.734L45.176 60H27.414L6.747 1.734H21.853L36.295 45.724L50.82 1.734H65.843ZM99.3309 60.581C93.8529 60.581 88.8176 59.3083 84.2249 56.763C79.6876 54.2177 76.0632 50.6763 73.3519 46.139C70.6959 41.5463 69.3679 36.4003 69.3679 30.701C69.3679 25.0017 70.6959 19.8833 73.3519 15.346C76.0632 10.8087 79.6876 7.26733 84.2249 4.722C88.8176 2.17667 93.8529 0.903999 99.3309 0.903999C104.809 0.903999 109.817 2.17667 114.354 4.722C118.947 7.26733 122.543 10.8087 125.144 15.346C127.8 19.8833 129.128 25.0017 129.128 30.701C129.128 36.4003 127.8 41.5463 125.144 46.139C122.488 50.6763 118.891 54.2177 114.354 56.763C109.817 59.3083 104.809 60.581 99.3309 60.581ZM99.3309 47.633C103.979 47.633 107.686 46.0837 110.453 42.985C113.275 39.8863 114.686 35.7917 114.686 30.701C114.686 25.555 113.275 21.4603 110.453 18.417C107.686 15.3183 103.979 13.769 99.3309 13.769C94.6276 13.769 90.8649 15.2907 88.0429 18.334C85.2762 21.3773 83.8929 25.4997 83.8929 30.701C83.8929 35.847 85.2762 39.9693 88.0429 43.068C90.8649 46.1113 94.6276 47.633 99.3309 47.633Z" fill="#0A7BC1"/>
<path d="M178.939 1.734V13.105H163.501V60H149.308V13.105H133.87V1.734H178.939ZM200.006 1.734V36.594C200.006 40.08 200.864 42.7637 202.579 44.645C204.294 46.5263 206.812 47.467 210.132 47.467C213.452 47.467 215.997 46.5263 217.768 44.645C219.539 42.7637 220.424 40.08 220.424 36.594V1.734H234.617V36.511C234.617 41.7123 233.51 46.1113 231.297 49.708C229.084 53.3047 226.096 56.016 222.333 57.842C218.626 59.668 214.476 60.581 209.883 60.581C205.29 60.581 201.168 59.6957 197.516 57.925C193.919 56.099 191.07 53.3877 188.967 49.791C186.864 46.139 185.813 41.7123 185.813 36.511V1.734H200.006ZM310.569 1.734V60H296.376V25.057L283.345 60H271.891L258.777 24.974V60H244.584V1.734H261.349L277.701 42.072L293.886 1.734H310.569Z" fill="#8AD2FF"/>
</g>
<defs>
<filter id="filter0_d_186_11358" x="0.74707" y="0.904053" width="315.822" height="72.1071" filterUnits="userSpaceOnUse" color-interpolation-filters="sRGB">
<feFlood flood-opacity="0" result="BackgroundImageFix"/>
<feColorMatrix in="SourceAlpha" type="matrix" values="0 0 0 0 0 0 0 0 0 0 0 0 0 0 0 0 0 0 127 0" result="hardAlpha"/>
<feOffset dy="6.43011"/>
<feGaussianBlur stdDeviation="3"/>
<feComposite in2="hardAlpha" operator="out"/>
<feColorMatrix type="matrix" values="0 0 0 0 0 0 0 0 0 0 0 0 0 0 0 0 0 0 0.25 0"/>
<feBlend mode="normal" in2="BackgroundImageFix" result="effect1_dropShadow_186_11358"/>
<feBlend mode="normal" in="SourceGraphic" in2="effect1_dropShadow_186_11358" result="shape"/>
</filter>
</defs>
</svg>
